<?xml version="1.0" encoding="UTF-8" standalone="no"?>

<!-- Created with Inkscape (http://www.inkscape.org/) -->
<svg width="32" version="1.1" xmlns="http://www.w3.org/2000/svg" height="32" xmlns:xlink="http://www.w3.org/1999/xlink" xmlns:inkscape="http://www.inkscape.org/namespaces/inkscape">
 <defs id="defs5455">
  <linearGradient inkscape:collect="always" xlink:href="#linearGradient4219" id="linearGradient4463" y1="21.999729" y2="8" x2="0" gradientUnits="userSpaceOnUse"/>
  <linearGradient inkscape:collect="always" id="linearGradient4219">
   <stop style="stop-color:#c3ced7" id="stop4221"/>
   <stop offset="1" style="stop-color:#e2f4f4" id="stop4223"/>
  </linearGradient>
  <linearGradient inkscape:collect="always" xlink:href="#linearGradient4410" id="linearGradient4473" y1="7.999729" x1="9" y2="21.999729" x2="23" gradientUnits="userSpaceOnUse"/>
  <linearGradient inkscape:collect="always" id="linearGradient4410">
   <stop style="stop-color:#383e51" id="stop4412"/>
   <stop offset="1" style="stop-color:#655c6f;stop-opacity:0" id="stop4414"/>
  </linearGradient>
  <linearGradient inkscape:collect="always" xlink:href="#linearGradient4697" id="linearGradient4703" y1="503.07938" x1="418.16971" y2="531.45813" x2="384.57144" gradientUnits="userSpaceOnUse" gradientTransform="matrix(0.91666628 0 0 0.91666628 -340.52366 -455.81464)"/>
  <linearGradient inkscape:collect="always" id="linearGradient4697">
   <stop style="stop-color:#4ce0c6" id="stop4699"/>
   <stop offset="1" style="stop-color:#3b85b5" id="stop4701"/>
  </linearGradient>
  <linearGradient inkscape:collect="always" xlink:href="#linearGradient4526" id="linearGradient4532" y1="521.63281" x1="404.0452" y2="528.35034" x2="430.73611" gradientUnits="userSpaceOnUse" gradientTransform="matrix(0.91666628 0 0 0.91666628 -340.52366 -455.81464)"/>
  <linearGradient inkscape:collect="always" id="linearGradient4526">
   <stop style="stop-color:#ffc169" id="stop4528"/>
   <stop offset="1" style="stop-color:#ffa92d" id="stop4530"/>
  </linearGradient>
  <linearGradient inkscape:collect="always" xlink:href="#linearGradient4468" id="linearGradient4474" y1="542.22382" x1="398.09201" y2="524.89966" x2="394.00299" gradientUnits="userSpaceOnUse" gradientTransform="matrix(0.91666628 0 0 0.91666628 -340.52366 -455.81464)"/>
  <linearGradient inkscape:collect="always" id="linearGradient4468">
   <stop style="stop-color:#334545" id="stop4470"/>
   <stop offset="1" style="stop-color:#536161" id="stop4472"/>
  </linearGradient>
  <linearGradient inkscape:collect="always" xlink:href="#linearGradient4468" id="linearGradient4500" y1="568.79803" x1="431.57141" y2="562.79803" x2="439.57141" gradientUnits="userSpaceOnUse" gradientTransform="matrix(-1 0 0 1 839.14285 -40.00001)"/>
  <linearGradient inkscape:collect="always" xlink:href="#linearGradient4468" id="linearGradient4498" y1="581.87024" x1="406.53735" y2="572.67786" x2="423.31955" gradientUnits="userSpaceOnUse" gradientTransform="matrix(-0.91666628 0 0 0.91666628 428.69029 -492.4813)"/>
  <linearGradient inkscape:collect="always" xlink:href="#linearGradient4468" id="linearGradient4496" y1="572.33411" x1="423.05438" y2="566.76562" x2="431.22452" gradientUnits="userSpaceOnUse" gradientTransform="matrix(-0.91666628 0 0 0.91666628 448.69029 -492.4813)"/>
  <linearGradient inkscape:collect="always" xlink:href="#linearGradient4468" id="linearGradient4492" y1="577.10217" x1="431.3129" y2="571.44531" x2="440.63208" gradientUnits="userSpaceOnUse" gradientTransform="matrix(-0.91666628 0 0 0.91666628 428.69029 -492.4813)"/>
  <linearGradient inkscape:collect="always" xlink:href="#linearGradient4468" id="linearGradient4490" y1="577.36243" x1="430.56738" y2="591.32782" x2="423.74994" gradientUnits="userSpaceOnUse" gradientTransform="matrix(-0.91666628 0 0 0.91666628 428.69029 -492.4813)"/>
 </defs>
 <metadata id="metadata5458"/>
 <g inkscape:label="Capa 1" inkscape:groupmode="layer" id="layer1" transform="matrix(1 0 0 1 -384.57143 -515.798)">
  <g id="g4578" transform="matrix(0.66666636 0 0 0.85555436 128.19063 86.77142)">
   <path inkscape:connector-curvature="0" style="fill:url(#linearGradient4703)" id="path4589" d="M 12,6 12,36 56,36 56,6 12,6 Z" transform="matrix(1.0909096 0 0 1.0909096 371.48052 497.25255)"/>
   <path inkscape:connector-curvature="0" style="fill:url(#linearGradient4532);stroke-linecap:round;stroke-width:2" id="path4284" d="M 56,6 25.71875,23.482422 47.400391,36 56,36 56,6 Z" transform="matrix(1.0909096 0 0 1.0909096 371.48052 497.25255)"/>
   <path inkscape:connector-curvature="0" style="fill:url(#linearGradient4474);stroke-linecap:round;stroke-width:2" id="path4284-5-6" d="M 25.75,23.416016 12,31.355469 12,36 47.605469,36 25.75,23.416016 Z" transform="matrix(1.0909096 0 0 1.0909096 371.48052 497.25255)"/>
   <path inkscape:transform-center-x="-5.5056915" inkscape:connector-curvature="0" style="fill:url(#linearGradient4500);stroke-linecap:round;stroke-width:2" id="path4284-5-6-2-2" d="m 407.82995,527.56606 -8.25852,-4.76806 0,9.53611 z"/>
   <path inkscape:connector-curvature="0" style="fill:url(#linearGradient4498);stroke-linecap:round;stroke-width:2" id="path4284-5-6-2-0" d="m 40.890625,32.15625 0,3.84375 6.65625,0 -6.65625,-3.84375 z" transform="matrix(1.0909096 0 0 1.0909096 371.48052 497.25255)"/>
   <path inkscape:connector-curvature="0" style="fill:url(#linearGradient4496);stroke-linecap:round;stroke-width:2" id="path4284-5-6-2-6" d="m 53.320312,27.787109 0,8.212891 0.916016,0 6.654297,-3.841797 -7.570313,-4.371094 z" transform="matrix(1.0909096 0 0 1.0909096 349.66233 497.25255)"/>
   <path inkscape:connector-curvature="0" style="fill:url(#linearGradient4492);stroke-linecap:round;stroke-width:2" id="path4284-5-6-2-6-50" d="M 25.75,32.158203 25.75,36 32.404297,36 25.75,32.158203 Z" transform="matrix(1.0909096 0 0 1.0909096 371.48052 497.25255)"/>
   <path inkscape:connector-curvature="0" style="fill:url(#linearGradient4490);stroke-linecap:round;stroke-width:2" id="path4284-5-6-2-0-6" d="M 40.890625,32.15625 34.234375,36 l 6.65625,0 0,-3.84375 z" transform="matrix(1.0909096 0 0 1.0909096 371.48052 497.25255)"/>
   <path inkscape:transform-center-x="5.5056789" inkscape:connector-curvature="0" style="fill:#ffa92d;stroke-linecap:round;stroke-width:2" id="path4284-1" d="m 399.53737,522.87024 33.03408,-19.07223 -2e-5,9.31712 z"/>
  </g>
  <flowRoot line-height="125%" style="font-size:10;font-family:sans-serif" id="flowRoot4170" transform="matrix(1 0 0 1 389.57143 520.79803)">
   <flowRegion id="flowRegion4172">
    <rect width="27" x="22" y="3" height="15" id="rect4174"/>
   </flowRegion>
   <flowPara id="flowPara4176">Plasm</flowPara>
  </flowRoot>
  <g id="g4783" transform="matrix(1 0 0 1 0 -0.00005)">
   <rect width="31.999952" x="384.57144" y="541.7981" height="3.999968" style="fill:#ffffff;fill-opacity:0.784314" id="rect4267-7"/>
   <circle cx="414.57144" cy="543.79797" style="fill:#4d4d4d" r="1" id="path4166"/>
   <path inkscape:connector-curvature="0" style="fill:#4d4d4d" id="rect4183" d="m 2,27 0,1 1,0 0,-1 -1,0 z m 1,1 0,1 1,0 0,-1 -1,0 z" transform="matrix(1 0 0 1 384.57143 515.798)"/>
  </g>
  <path style="fill:url(#linearGradient4473);opacity:0.2;fill-rule:evenodd" id="path4463" d="M 23 10 L 23 11 L 9 11 L 18 20 L 14 20 L 13 21 L 12 21 L 11 22 L 19 30 L 28 30 L 32 30 L 32 19 L 23 10 z " transform="matrix(1 0 0 1 384.57143 515.798)"/>
  <path style="fill:url(#linearGradient4463)" id="rect4437" d="M 17.5 8 C 16.286135 8 15.280979 8.855924 15.050781 10 L 9 10 L 9 11 L 15.050781 11 C 15.280979 12.144076 16.286135 13 17.5 13 C 18.713865 13 19.719021 12.144076 19.949219 11 L 23 11 L 23 10 L 19.949219 10 C 19.719021 8.855924 18.713865 8 17.5 8 z M 11.5 17 C 10.115007 17 9 18.115007 9 19.5 C 9 20.884993 10.115007 22 11.5 22 C 12.713854 22 13.719021 21.144068 13.949219 20 L 23 20 L 23 19 L 13.949219 19 C 13.719021 17.855932 12.713854 17 11.5 17 z M 11.5 18 C 12.330993 18 13 18.669007 13 19.5 C 13 20.330993 12.330993 21 11.5 21 C 10.669007 21 10 20.330993 10 19.5 C 10 18.669007 10.669007 18 11.5 18 z " transform="matrix(1 0 0 1 384.57143 515.798)"/>
  <flowRoot line-height="125%" style="font-size:10;font-family:sans-serif" id="flowRoot4170-3" transform="matrix(1 0 0 1 389.57142 520.79803)">
   <flowRegion id="flowRegion4172-7">
    <rect width="27" x="22" y="3" height="15" id="rect4174-7"/>
   </flowRegion>
   <flowPara id="flowPara4176-8">Plasm</flowPara>
  </flowRoot>
 </g>
</svg>
