<svg xmlns="http://www.w3.org/2000/svg" viewBox="0 0 24 24">
  <defs id="defs3051">
    <style type="text/css" id="current-color-scheme">
      .ColorScheme-Text {
        color:#f2f2f2;
      }
      </style>
  </defs>
 <path style="fill:currentColor;fill-opacity:1;stroke:none" 
     d="M 16 4 A 2.00001 2 0 0 0 14 6 A 2.00001 2 0 0 0 16 8 A 2.00001 2 0 0 0 18 6 A 2.00001 2 0 0 0 16 4 z M 11.5 8 A 0.5 0.5 0 0 0 11 8.5 A 0.5 0.5 0 0 0 11.5 9 A 0.5 0.5 0 0 0 12 8.5 A 0.5 0.5 0 0 0 11.5 8 z M 9.5 9 A 0.5 0.499991 0 0 0 9 9.5 A 0.5 0.499991 0 0 0 9.5 10 A 0.5 0.499991 0 0 0 10 9.5 A 0.5 0.499991 0 0 0 9.5 9 z M 6 10 A 2 2.00001 0 0 0 4 12 A 2 2.00001 0 0 0 6 14 A 2 2.00001 0 0 0 8 12 A 2 2.00001 0 0 0 6 10 z M 9.5 14 A 0.500009 0.5 0 0 0 9 14.5 A 0.500009 0.5 0 0 0 9.5 15 A 0.500009 0.5 0 0 0 10 14.5 A 0.500009 0.5 0 0 0 9.5 14 z M 11.5 15 A 0.5 0.5 0 0 0 11 15.5 A 0.5 0.5 0 0 0 11.5 16 A 0.5 0.5 0 0 0 12 15.5 A 0.5 0.5 0 0 0 11.5 15 z M 16 16 A 2.00001 2 0 0 0 14 18 A 2.00001 2 0 0 0 16 20 A 2.00001 2 0 0 0 18 18 A 2.00001 2 0 0 0 16 16 z "
     class="ColorScheme-Text"
     />
</svg>
