<?xml version="1.0" encoding="UTF-8" standalone="no"?>

<!-- Created with Inkscape (http://www.inkscape.org/) -->
<svg width="32" version="1.1" xmlns="http://www.w3.org/2000/svg" height="32" viewBox="0 0 32 32" xmlns:xlink="http://www.w3.org/1999/xlink" xmlns:inkscape="http://www.inkscape.org/namespaces/inkscape">
 <defs id="defs5455">
  <linearGradient inkscape:collect="always" id="linearGradient4207">
   <stop style="stop-color:#814b13" id="stop4209"/>
   <stop offset="1" style="stop-color:#9d5b17" id="stop4211"/>
  </linearGradient>
  <linearGradient inkscape:collect="always" id="linearGradient4143">
   <stop style="stop-color:#fdc95f" id="stop4145"/>
   <stop offset="1" style="stop-color:#fdd583" id="stop4147"/>
  </linearGradient>
  <linearGradient inkscape:collect="always" xlink:href="#linearGradient4143" id="linearGradient4149" y1="545.79797" y2="517.79797" x2="0" gradientUnits="userSpaceOnUse" gradientTransform="matrix(1 0 0 1 -0.000017 0.000013)"/>
  <linearGradient inkscape:collect="always" xlink:href="#linearGradient4207" id="linearGradient4213" y1="538.79797" y2="534.79797" x2="0" gradientUnits="userSpaceOnUse"/>
  <linearGradient inkscape:collect="always" xlink:href="#linearGradient4207" id="linearGradient4221" y1="528.79797" y2="524.79797" x2="0" gradientUnits="userSpaceOnUse"/>
 </defs>
 <metadata id="metadata5458"/>
 <g inkscape:label="Capa 1" inkscape:groupmode="layer" id="layer1" transform="matrix(1 0 0 1 -384.57143 -515.798)">
  <rect width="28.00001" x="386.57141" y="517.79797" rx="14" height="28.00003" ry="14.00001" style="fill:url(#linearGradient4149)" id="rect4130"/>
  <ellipse cx="395.57144" cy="526.79803" rx="2" ry="2.00001" style="fill:url(#linearGradient4221);stroke-width:5.03937" id="path4184"/>
  <ellipse cx="405.5715" cy="526.79803" rx="1.999993" ry="2" style="fill:url(#linearGradient4221);stroke-width:5.03935" id="circle4186"/>
  <path inkscape:connector-curvature="0" style="fill:url(#linearGradient4213);stroke-width:1.231256" id="path4229" d="m 395.24526,535.10422 a 6.1562779,7.3875605 0 0 0 5.32662,3.69378 6.1562779,7.3875605 0 0 0 5.32182,-3.69378 l -0.7479,0 a 6.1562779,7.3875605 0 0 1 -4.57392,2.46253 6.1562779,7.3875605 0 0 1 -4.57633,-2.46253 l -0.75029,0 z"/>
 </g>
</svg>
