<svg xmlns="http://www.w3.org/2000/svg" viewBox="0 0 16 16">
 <g transform="translate(-421.71-531.79)">
  <g fill="#43be80">
   <path d="M8 9A5 4.5 0 0 0 3 13.5 5 4.5 0 0 0 3.033203 14H12.963A5 4.5 0 0 0 13 13.5 5 4.5 0 0 0 8 9M8 10A4 3.5 0 0 1 11.955078 13H4.045A4 3.5 0 0 1 8 10" transform="translate(421.71 531.79)"/>
   <path d="m429.71 533.79c-1.657 0-3 1.343-3 3 0 1.657 1.343 3 3 3 1.657 0 3-1.343 3-3 0-1.657-1.343-3-3-3m1.592 1.232l.707.707-2.83 2.828-1.768-1.768.707-.707 1.061 1.061z"/>
  </g>
  <path fill="#fff" d="m431.31 535.02l.707.707-2.83 2.828-1.768-1.768.707-.707 1.061 1.061z"/>
 </g>
</svg>
