<svg xmlns="http://www.w3.org/2000/svg" viewBox="0 0 16 16">
  <defs id="defs3051">
    <style type="text/css" id="current-color-scheme">
      .ColorScheme-Text {
        color:#f2f2f2
      }
      </style>
  </defs>
 <path style="fill:currentColor;fill-opacity:1;stroke:none" 
     d="M 4 3 L 4 5 L 2 5 L 2 6 L 4 6 L 4 8 L 7 8 L 7 7 L 5 7 L 5 4 L 7 4 L 7 3 L 5 3 L 4 3 z M 9 3 L 9 4 L 11 4 L 11 7 L 9 7 L 9 8 L 12 8 L 12 6 L 14 6 L 14 5 L 12 5 L 12 3 L 11 3 L 9 3 z M 7 5 L 7 6 L 9 6 L 9 5 L 7 5 z M 11 9 L 11 11 L 9 11 L 9 12 L 11 12 L 11 14 L 12 14 L 12 12 L 14 12 L 14 11 L 12 11 L 12 9 L 11 9 z "
     class="ColorScheme-Text"
     />
</svg>
