<svg xmlns="http://www.w3.org/2000/svg" viewBox="0 0 16 16">
  <defs id="defs3051">
    <style type="text/css" id="current-color-scheme">
      .ColorScheme-Text {
        color:#232629;
      }
      </style>
  </defs>
      <path 
          style="fill:currentColor" 
          d="M 8,2 A 6,2 0 0 0 2,4 l 0,8 a 6,2 0 0 0 6,2 6,2 0 0 0 6,-2 L 14,4 A 6,2 0 0 0 8,2 Z M 8,3 A 5,1 0 0 1 13,4 5,1 0 0 1 8,5 5,1 0 0 1 3,4 5,1 0 0 1 8,3 Z M 3,5.1 A 6,2 0 0 0 8,6 6,2 0 0 0 13,5.1 L 13,8 A 5,1 0 0 1 8,9 5,1 0 0 1 3,8 L 3,5.1 Z m 0,4 A 6,2 0 0 0 8,10 6,2 0 0 0 13,9.1 L 13,12 A 5,1 0 0 1 8,13 5,1 0 0 1 3,12 L 3,9.1 Z" 
          class="ColorScheme-Text"/>
</svg>
