<svg xmlns="http://www.w3.org/2000/svg" viewBox="0 0 16 16">
  <defs id="defs3051">
    <style type="text/css" id="current-color-scheme">
      .ColorScheme-Text {
        color:#f2f2f2
      }
      </style>
  </defs>
 <path style="fill:currentColor;fill-opacity:1;stroke:none" 
     d="M 3.5 1.9980469 L 3.5 2 C 2.672 2 2 2.672 2 3.5 C 2 4.156 2.414 4.70225 3 4.90625 L 3 11.09375 C 2.414 11.29775 2 11.844 2 12.5 C 2 13.328 2.672 14 3.5 14 C 4.328 14 5 13.328 5 12.5 C 5 11.844 4.586 11.29775 4 11.09375 L 4 4.90625 C 4.077 4.87925 4.14775 4.8515 4.21875 4.8125 L 7.09375 6.96875 C 7.03375 7.13075 7 7.3150469 7 7.4980469 C 7 8.3260469 7.672 8.9980469 8.5 8.9980469 C 9.328 8.9980469 10 8.3260469 10 7.4980469 C 10 6.6700469 9.328 5.9980469 8.5 5.9980469 C 8.215 5.9980469 7.94575 6.08075 7.71875 6.21875 L 4.875 4.09375 C 4.951 3.91475 5 3.7050469 5 3.4980469 C 5 2.6700469 4.328 1.9980469 3.5 1.9980469 z M 3.5 2.9980469 C 3.776 2.9980469 4 3.2220469 4 3.4980469 C 4 3.7740469 3.776 3.9980469 3.5 3.9980469 C 3.224 3.9980469 3 3.7740469 3 3.4980469 C 3 3.2220469 3.224 2.9980469 3.5 2.9980469 z M 8.5 6.9980469 C 8.776 6.9980469 9 7.2220469 9 7.4980469 C 9 7.7740469 8.776 7.9980469 8.5 7.9980469 C 8.224 7.9980469 8 7.7740469 8 7.4980469 C 8 7.2220469 8.224 6.9980469 8.5 6.9980469 z M 11 8 L 11 12.09375 L 8.71875 9.8125 L 8 10.501953 L 11.28125 13.814453 L 11.5 14.001953 L 11.71875 13.814453 L 15 10.501953 L 14.28125 9.8125 L 12 12.09375 L 12 8 L 11 8 z M 3.5 11.998047 C 3.776 11.998047 4 12.222047 4 12.498047 C 4 12.774047 3.776 12.998047 3.5 12.998047 C 3.224 12.998047 3 12.774047 3 12.498047 C 3 12.222047 3.224 11.998047 3.5 11.998047 z "
     class="ColorScheme-Text"
     />
</svg>
