<?xml version="1.0" encoding="UTF-8" standalone="no"?>

<!-- Created with Inkscape (http://www.inkscape.org/) -->
<svg width="32" version="1.1" xmlns="http://www.w3.org/2000/svg" height="32" xmlns:xlink="http://www.w3.org/1999/xlink" xmlns:inkscape="http://www.inkscape.org/namespaces/inkscape">
 <defs id="defs5455">
  <linearGradient inkscape:collect="always" xlink:href="#linearGradient4435" id="linearGradient4149" y1="545.79797" y2="517.79797" x2="0" gradientUnits="userSpaceOnUse"/>
  <linearGradient inkscape:collect="always" id="linearGradient4390">
   <stop style="stop-color:#f7abb2" id="stop4392"/>
   <stop offset="1" style="stop-color:#f9dce0" id="stop4394"/>
  </linearGradient>
  <linearGradient inkscape:collect="always" id="linearGradient4435">
   <stop style="stop-color:#c61423" id="stop4437"/>
   <stop offset="1" style="stop-color:#dc2b41" id="stop4439"/>
  </linearGradient>
  <linearGradient inkscape:collect="always" xlink:href="#linearGradient4390" id="linearGradient4189" y1="22.999973" y2="9" x2="0" gradientUnits="userSpaceOnUse"/>
  <linearGradient inkscape:collect="always" xlink:href="#linearGradient4227" id="linearGradient4231" y1="8" x1="9.00001" y2="24" x2="25.00001" gradientUnits="userSpaceOnUse"/>
  <linearGradient inkscape:collect="always" id="linearGradient4227">
   <stop style="stop-color:#292c2f" id="stop4229"/>
   <stop offset="1" style="stop-opacity:0" id="stop4231"/>
  </linearGradient>
 </defs>
 <metadata id="metadata5458"/>
 <g inkscape:label="Capa 1" inkscape:groupmode="layer" id="layer1" transform="matrix(1 0 0 1 -384.57143 -515.798)">
  <rect width="28.00001" x="386.57144" y="517.79797" rx="14.00001" height="28.00003" style="fill:url(#linearGradient4149)" id="rect4130"/>
  <path style="fill:url(#linearGradient4231);opacity:0.2" id="rect4215" d="M 17 9 L 17 16 L 15 16 L 19.712891 20.712891 A 6 6 0 0 1 16 22 A 6 6 0 0 1 11.759766 20.240234 L 11.050781 20.949219 L 19.615234 29.515625 C 24.449991 28.233408 28.233408 24.449991 29.515625 19.615234 L 20.949219 11.050781 L 20.240234 11.759766 A 6 6 0 0 1 21.394531 13.394531 L 17 9 z " transform="matrix(1 0 0 1 384.57143 515.798)"/>
  <path style="fill:url(#linearGradient4189)" id="path4169" d="M 15 9 L 15 16 L 17 16 L 17 9 L 15 9 z M 14 9.2949219 A 6.9999866 6.9999866 0 0 0 9 16 A 6.9999866 6.9999866 0 0 0 16 23 A 6.9999866 6.9999866 0 0 0 23 16 A 6.9999866 6.9999866 0 0 0 18 9.2988281 L 18 10.349609 A 5.9999866 5.9999866 0 0 1 22 16 A 5.9999866 5.9999866 0 0 1 16 22 A 5.9999866 5.9999866 0 0 1 10 16 A 5.9999866 5.9999866 0 0 1 14 10.349609 L 14 9.2949219 z " transform="matrix(1 0 0 1 384.57143 515.798)"/>
 </g>
</svg>
