<?xml version="1.0" encoding="UTF-8" standalone="no"?>

<!-- Created with Inkscape (http://www.inkscape.org/) -->
<svg width="22" version="1.1" xmlns="http://www.w3.org/2000/svg" height="22" xmlns:inkscape="http://www.inkscape.org/namespaces/inkscape">
 <defs id="defs3871"/>
 <metadata id="metadata3874"/>
 <g inkscape:label="Capa 1" inkscape:groupmode="layer" id="layer1" transform="matrix(1 0 0 1 -326 -534.3622)">
  <rect width="0" x="256.22556" y="514.69751" height="14.668059" style="fill:#6c7a89" id="rect4035"/>
  <rect width="0" x="263.18613" y="537.26813" height="14.668059" style="fill:#6c7a89" id="rect4035-8"/>
  <rect width="0" x="264.99942" y="536.2074" height="14.668059" style="fill:#6c7a89" id="rect4035-0"/>
  <rect width="0" x="256.22556" y="514.69751" height="14.668059" style="fill:#6c7a89" id="rect4035-3"/>
  <rect width="0" x="263.18613" y="537.26813" height="14.668059" style="fill:#6c7a89" id="rect4035-8-9"/>
  <rect width="0" x="264.99942" y="536.2074" height="14.668059" style="fill:#6c7a89" id="rect4035-0-4"/>
  <rect width="0" x="256.22556" y="514.69751" height="14.668059" style="fill:#6c7a89" id="rect4035-2"/>
  <rect width="0" x="263.18613" y="537.26813" height="14.668059" style="fill:#6c7a89" id="rect4035-8-99"/>
  <rect width="0" x="264.99942" y="536.2074" height="14.668059" style="fill:#6c7a89" id="rect4035-0-43"/>
  <rect width="0" x="256.22556" y="514.69751" height="14.668059" style="fill:#6c7a89" id="rect4035-3-9"/>
  <rect width="0" x="263.18613" y="537.26813" height="14.668059" style="fill:#6c7a89" id="rect4035-8-9-9"/>
  <rect width="0" x="264.99942" y="536.2074" height="14.668059" style="fill:#6c7a89" id="rect4035-0-4-4"/>
  <rect width="0" x="273.38181" y="518.47876" height="14.668059" style="fill:#6c7a89" id="rect4035-6"/>
  <rect width="0" x="280.34238" y="541.04938" height="14.668059" style="fill:#6c7a89" id="rect4035-8-8"/>
  <rect width="0" x="282.15567" y="539.98865" height="14.668059" style="fill:#6c7a89" id="rect4035-0-6"/>
  <rect width="16" x="329" y="537.36218" height="1" style="fill:#6c7a89;stroke-width:6" id="rect5056"/>
  <rect width="16" x="329" y="552.36218" height="0.999983" style="fill:#6c7a89;stroke-width:6" id="rect5058"/>
  <rect width="11" x="332" y="540.36218" height="1" style="fill:#6c7a89;stroke-width:6" id="rect5060"/>
  <rect width="5" x="332" y="543.36218" height="1" style="fill:#6c7a89;stroke-width:6" id="rect5062"/>
  <rect width="11" x="332" y="546.36218" height="1" style="fill:#6c7a89;stroke-width:6" id="rect5064"/>
  <rect width="5" x="332" y="549.36218" height="1" style="fill:#6c7a89;stroke-width:6" id="rect5066"/>
  <circle cx="329.5" cy="540.86218" style="fill:#6c7a89;stroke-width:6" id="path5068" r="0.5"/>
  <circle cx="329.5" cy="546.86218" style="fill:#6c7a89;stroke-width:6" id="path5070" r="0.5"/>
 </g>
</svg>
