<svg xmlns="http://www.w3.org/2000/svg" viewBox="0 0 16 16">
  <defs id="defs3051">
    <style type="text/css" id="current-color-scheme">
      .ColorScheme-Text {
        color:#f2f2f2
      }
      </style>
  </defs>
 <path style="fill:currentColor;fill-opacity:1;stroke:none" 
       d="M 6 2 L 8 4 L 10 2 L 6 2 z M 8 4 L 4 4 L 4 8 L 4 12 L 8 12 L 12 12 L 12 8 L 12 4 L 8 4 z M 12 8 L 14 10 L 14 6 L 12 8 z M 8 12 L 6 14 L 10 14 L 8 12 z M 4 8 L 2 6 L 2 10 L 4 8 z M 5 6 L 11 6 L 11 11 L 5 11 L 5 6 z "
     class="ColorScheme-Text"
     />
</svg>
