<?xml version="1.0" encoding="UTF-8" standalone="no"?>
<!-- Created with PhotoLine 24.40b19 (www.pl32.de) -->

<svg
   width="48"
   height="48"
   viewBox="0 0 48 48"
   version="1.1"
   id="svg2"
   sodipodi:docname="icon.svg"
   inkscape:version="1.3.2 (091e20ef0f, 2023-11-25)"
   xmlns:inkscape="http://www.inkscape.org/namespaces/inkscape"
   xmlns:sodipodi="http://sodipodi.sourceforge.net/DTD/sodipodi-0.dtd"
   xmlns:xlink="http://www.w3.org/1999/xlink"
   xmlns="http://www.w3.org/2000/svg"
   xmlns:svg="http://www.w3.org/2000/svg">
  <defs
     id="defs2">
    <linearGradient
       id="linearGradient1"
       inkscape:collect="always">
      <stop
         style="stop-color:#e2e5f3;stop-opacity:1;"
         offset="0"
         id="stop1" />
      <stop
         style="stop-color:#fffefe;stop-opacity:1;"
         offset="0.99899322"
         id="stop2" />
    </linearGradient>
    <linearGradient
       inkscape:collect="always"
       xlink:href="#linearGradient1"
       id="linearGradient2"
       x1="387.39"
       y1="523.8"
       x2="429.75"
       y2="523.8"
       gradientUnits="userSpaceOnUse" />
  </defs>
  <sodipodi:namedview
     id="namedview2"
     pagecolor="#ffffff"
     bordercolor="#666666"
     borderopacity="1.0"
     inkscape:showpageshadow="2"
     inkscape:pageopacity="0.0"
     inkscape:pagecheckerboard="0"
     inkscape:deskcolor="#d1d1d1"
     inkscape:zoom="16.958333"
     inkscape:cx="24.058969"
     inkscape:cy="24"
     inkscape:window-width="1892"
     inkscape:window-height="1018"
     inkscape:window-x="0"
     inkscape:window-y="0"
     inkscape:window-maximized="1"
     inkscape:current-layer="svg2" />
  <g
     style="fill:none;stroke:#ffffff;stroke-opacity:1;stroke-width:1.08562162;stroke-dasharray:none"
     id="path3381"
     transform="matrix(1.105357 0 0 1.105358 -427.758575 -554.772156)">
    <path
       transform="matrix(0.904685 0 0 0.904684 2.415367 2.095696)"
       stroke-width="2.36"
       stroke-linecap="round"
       stroke-linejoin="round"
       fill="#ffffff"
       d="M471.05 554.56 L471.05 598.78 L440.1 598.78 L426.84 585.51 L426.84 554.56 Z"
       id="path1"
       style="fill:none;stroke:#ffffff;stroke-opacity:1;stroke-width:1.20000024;stroke-dasharray:none" />
  </g>
  <path
     style="fill:url(#linearGradient2);fill-opacity:1;stroke:#1c245f;stroke-opacity:1"
     id="path2"
     transform="matrix(1 0 0 1 -384.571442 -499.798004)"
     stroke-width="2.36"
     stroke-linecap="round"
     stroke-linejoin="round"
     fill="none"
     stroke="#000000"
     d="M428.57 503.8 L428.57 543.8 L400.57 543.8 L388.57 531.8 L388.57 503.8 Z" />
  <rect
     style="stroke:none;stroke-opacity:1;fill:#1c245f;fill-opacity:1"
     id="rect3383"
     transform="matrix(1 0 0 -1 -384.571442 -499.798004)"
     x="388.57"
     y="-510.8"
     width="40"
     height="7" />
  <path
     style="fill:#2a348c;fill-opacity:1;stroke-width:1.36669"
     id="path4225"
     d="m 24.322044,14.674672 c -4.687758,0 -8.500832,3.813074 -8.500832,8.514499 0,0.423675 0.02733,0.792682 0.09567,1.216357 -0.02733,0 -0.06833,0 -0.09567,-0.01367 -3.348399,0 -6.0817849,2.733386 -6.0817849,6.081785 0,3.348398 2.7333859,6.068118 6.0817849,6.068118 h 15.785307 c 4.031745,0 7.298141,-3.266397 7.298141,-7.284475 -0.01367,-3.621737 -2.58305,-6.628462 -6.163786,-7.188807 -0.560344,-4.264083 -4.127414,-7.380143 -8.41883,-7.39381 z m 0.423675,3.25273 c 0.984019,-0.01367 6.232121,0.84735 4.783426,6.888134 -0.01367,0.02733 0.410008,-0.109336 0.437342,-0.109336 4.605756,-0.232338 5.535107,8.131825 1.093354,8.186493 H 16.572893 c -2.063707,0 -3.334731,-1.681033 -2.815388,-3.826741 0.451009,-1.886037 1.312026,-2.747054 4.441753,-2.788054 0,0 0,0 0,0 0.546677,0.06833 1.011353,0.232337 1.51703,0.53301 -3.170729,-8.364163 4.81076,-8.883506 5.029431,-8.883506 z" />
  <path
     id="path3387"
     transform="matrix(1 0 0 1 -384.571442 -499.798004)"
     fill-rule="evenodd"
     d="M388.57 531.35 L401.07 543.8 L401.07 531.35 Z"
     style="fill:#1c245f;fill-opacity:1" />
</svg>
