<?xml version="1.0" encoding="UTF-8" standalone="no"?>
<!-- Created with PhotoLine 24.40b19 (www.pl32.de) -->

<svg
   width="48"
   height="48"
   viewBox="0 0 48 48"
   version="1.1"
   id="svg2"
   sodipodi:docname="icon.svg"
   inkscape:version="1.3.2 (091e20ef0f, 2023-11-25)"
   xmlns:inkscape="http://www.inkscape.org/namespaces/inkscape"
   xmlns:sodipodi="http://sodipodi.sourceforge.net/DTD/sodipodi-0.dtd"
   xmlns="http://www.w3.org/2000/svg"
   xmlns:svg="http://www.w3.org/2000/svg">
  <defs
     id="defs2" />
  <sodipodi:namedview
     id="namedview2"
     pagecolor="#ffffff"
     bordercolor="#666666"
     borderopacity="1.0"
     inkscape:showpageshadow="2"
     inkscape:pageopacity="0.0"
     inkscape:pagecheckerboard="0"
     inkscape:deskcolor="#d1d1d1"
     inkscape:zoom="16.958333"
     inkscape:cx="24"
     inkscape:cy="24"
     inkscape:window-width="1892"
     inkscape:window-height="1018"
     inkscape:window-x="0"
     inkscape:window-y="0"
     inkscape:window-maximized="1"
     inkscape:current-layer="svg2" />
  <g
     style=""
     id="path3381"
     transform="matrix(1.105357 0 0 1.105358 -427.758575 -554.772156)">
    <path
       transform="matrix(0.904685 0 0 0.904684 2.415367 2.095696)"
       stroke-width="2.36"
       stroke-linecap="round"
       stroke-linejoin="round"
       fill="#ffffff"
       stroke="#ffffff"
       d="M471.05 554.56 L471.05 598.78 L440.1 598.78 L426.84 585.51 L426.84 554.56 Z"
       id="path1" />
  </g>
  <path
     style="fill:#ffffff;fill-opacity:1"
     id="path2"
     transform="matrix(1 0 0 1 -384.571442 -499.798004)"
     stroke-width="2.36"
     stroke-linecap="round"
     stroke-linejoin="round"
     fill="none"
     stroke="#000000"
     d="M428.57 503.8 L428.57 543.8 L400.57 543.8 L388.57 531.8 L388.57 503.8 Z" />
  <rect
     style=""
     id="rect3383"
     transform="matrix(1 0 0 -1 -384.571442 -499.798004)"
     x="388.57"
     y="-510.8"
     width="40"
     height="7" />
  <path
     style=""
     id="path4225"
     transform="matrix(1 0 0 1 -384.571442 -502.226593)"
     d="M408.41 515.92 C404.98 515.92 402.19 518.71 402.19 522.15 C402.19 522.46 402.21 522.73 402.26 523.04 C402.24 523.04 402.21 523.04 402.19 523.03 C399.74 523.03 397.74 525.03 397.74 527.48 C397.74 529.93 399.74 531.92 402.19 531.92 L413.74 531.92 C416.69 531.92 419.08 529.53 419.08 526.59 C419.07 523.94 417.19 521.74 414.57 521.33 C414.16 518.21 411.55 515.93 408.41 515.92 Z M408.72 518.3 C409.44 518.29 413.28 518.92 412.22 523.34 C412.21 523.36 412.52 523.26 412.54 523.26 C415.91 523.09 416.59 529.21 413.34 529.25 L402.74 529.25 C401.23 529.25 400.3 528.02 400.68 526.45 C401.01 525.07 401.64 524.44 403.93 524.41 C403.93 524.41 403.93 524.41 403.93 524.41 C404.33 524.46 404.67 524.58 405.04 524.8 C402.72 518.68 408.56 518.3 408.72 518.3 Z" />
  <path
     id="path3387"
     transform="matrix(1 0 0 1 -384.571442 -499.798004)"
     fill-rule="evenodd"
     d="M388.57 531.35 L401.07 543.8 L401.07 531.35 Z" />
</svg>
