<?xml version="1.0" encoding="UTF-8" standalone="no"?>
<!-- Created with PhotoLine 24.40b19 (www.pl32.de) -->
<!DOCTYPE svg PUBLIC "-//W3C//DTD SVG 1.1//EN" "http://www.w3.org/Graphics/SVG/1.1/DTD/svg11.dtd">
<svg width="48" height="48" viewBox="0 0 48 48" version="1.1" xmlns="http://www.w3.org/2000/svg" xmlns:xlink="http://www.w3.org/1999/xlink">
  <path style="" id="path3381" transform="matrix(1 0 0 1 -384.571442 -499.798004)" stroke-width="2.36" stroke-linecap="round" stroke-linejoin="round" fill="none" stroke="#ffffff" d="M428.57 503.8 L428.57 543.8 L400.57 543.8 L388.57 531.8 L388.57 503.8 Z"/>
  <rect style="" id="rect3383" transform="matrix(1 0 0 -1 -384.571442 -499.798004)" fill="#ffffff" x="388.57" y="-510.8" width="40" height="7"/>
  <path style="" id="path4225" transform="matrix(1 0 0 1 -384.571442 -502.226593)" fill="#ffffff" d="M408.41 515.92 C404.98 515.92 402.19 518.71 402.19 522.15 C402.19 522.46 402.21 522.73 402.26 523.04 C402.24 523.04 402.21 523.04 402.19 523.03 C399.74 523.03 397.74 525.03 397.74 527.48 C397.74 529.93 399.74 531.92 402.19 531.92 L413.74 531.92 C416.69 531.92 419.08 529.53 419.08 526.59 C419.07 523.94 417.19 521.74 414.57 521.33 C414.16 518.21 411.55 515.93 408.41 515.92 Z M408.72 518.3 C409.44 518.29 413.28 518.92 412.22 523.34 C412.21 523.36 412.52 523.26 412.54 523.26 C415.91 523.09 416.59 529.21 413.34 529.25 L402.74 529.25 C401.23 529.25 400.3 528.02 400.68 526.45 C401.01 525.07 401.64 524.44 403.93 524.41 C403.93 524.41 403.93 524.41 403.93 524.41 C404.33 524.46 404.67 524.58 405.04 524.8 C402.72 518.68 408.56 518.3 408.72 518.3 Z"/>
  <path id="path3387" transform="matrix(1 0 0 1 -384.571442 -499.798004)" fill="#ffffff" fill-rule="evenodd" d="M388.57 531.35 L401.07 543.8 L401.07 531.35 Z"/>
</svg>