<?xml version="1.0" encoding="UTF-8" standalone="no"?>
<!-- Created with Inkscape (http://www.inkscape.org/) -->

<svg
   xmlns:dc="http://purl.org/dc/elements/1.1/"
   xmlns:cc="http://creativecommons.org/ns#"
   xmlns:rdf="http://www.w3.org/1999/02/22-rdf-syntax-ns#"
   xmlns:svg="http://www.w3.org/2000/svg"
   xmlns="http://www.w3.org/2000/svg"
   xmlns:sodipodi="http://sodipodi.sourceforge.net/DTD/sodipodi-0.dtd"
   xmlns:inkscape="http://www.inkscape.org/namespaces/inkscape"
   width="24"
   height="24"
   id="svg2"
   version="1.1"
   inkscape:version="0.91+devel r"
   viewBox="0 0 24 24"
   sodipodi:docname="lc_pagedialog.svg">
  <defs
     id="defs4" />
  <sodipodi:namedview
     id="base"
     pagecolor="#ffffff"
     bordercolor="#666666"
     borderopacity="1.0"
     inkscape:pageopacity="0.0"
     inkscape:pageshadow="2"
     inkscape:zoom="33.683996"
     inkscape:cx="13.345187"
     inkscape:cy="13.151403"
     inkscape:document-units="px"
     inkscape:current-layer="layer1"
     showgrid="true"
     inkscape:showpageshadow="false"
     borderlayer="true"
     inkscape:window-width="1366"
     inkscape:window-height="670"
     inkscape:window-x="-4"
     inkscape:window-y="29"
     inkscape:window-maximized="1"
     units="px"
     fit-margin-top="0"
     fit-margin-left="0"
     fit-margin-right="0"
     fit-margin-bottom="0">
    <sodipodi:guide
       position="3,21"
       orientation="18,0"
       id="guide4085" />
    <sodipodi:guide
       position="3,3"
       orientation="0,18"
       id="guide4087" />
    <sodipodi:guide
       position="21,3"
       orientation="-18,0"
       id="guide4089" />
    <sodipodi:guide
       position="21,21"
       orientation="0,-18"
       id="guide4091" />
    <sodipodi:guide
       position="4,20"
       orientation="16,0"
       id="guide4093" />
    <sodipodi:guide
       position="4,4"
       orientation="0,16"
       id="guide4095" />
    <sodipodi:guide
       position="20,4"
       orientation="-16,0"
       id="guide4097" />
    <sodipodi:guide
       position="20,20"
       orientation="0,-16"
       id="guide4099" />
    <inkscape:grid
       type="xygrid"
       id="grid4101"
       originx="1px"
       originy="0.99998262px" />
    <sodipodi:guide
       position="4,20"
       orientation="16,0"
       id="guide4123" />
    <sodipodi:guide
       position="4,4"
       orientation="0,2.000001"
       id="guide4125" />
    <sodipodi:guide
       position="5,20"
       orientation="-16,0"
       id="guide4127" />
    <sodipodi:guide
       position="6.000001,20"
       orientation="0,-2.000001"
       id="guide4129" />
    <sodipodi:guide
       position="19,20"
       orientation="16,0"
       id="guide4131" />
    <sodipodi:guide
       position="18,4"
       orientation="0,2"
       id="guide4133" />
    <sodipodi:guide
       position="20,4"
       orientation="-16,0"
       id="guide4135" />
    <sodipodi:guide
       position="20,20"
       orientation="0,-2"
       id="guide4137" />
  </sodipodi:namedview>
  <metadata
     id="metadata7">
    <rdf:RDF>
      <cc:Work
         rdf:about="">
        <dc:format>image/svg+xml</dc:format>
        <dc:type
           rdf:resource="http://purl.org/dc/dcmitype/StillImage" />
        <dc:title />
      </cc:Work>
    </rdf:RDF>
  </metadata>
  <g
     inkscape:label="Capa 1"
     inkscape:groupmode="layer"
     id="layer1"
     transform="translate(1,-1029.3622)">
    <path
       style="fill:#4d4d4d;fill-opacity:1;stroke:none"
       d="M 5 3.9980469 L 5 4 L 5 20 L 6 20 L 14 20 L 15 20 L 15 19.990234 L 15.007812 20 L 19 16.007812 L 19 15.998047 L 19 14.591797 L 19 3.9980469 L 18 3.9980469 L 6 3.9980469 L 5 3.9980469 z M 6 5 L 18 5 L 18 15 L 14 15 L 14 16 L 14 19 L 6 19 L 6 5 z M 13.5 7 C 12.847785 7 12.298389 7.4186606 12.091797 8 L 7 8 L 7 9 L 12.091797 9 C 12.298389 9.5813394 12.847785 10 13.5 10 C 14.152215 10 14.701611 9.5813394 14.908203 9 L 17 9 L 17 8 L 14.908203 8 C 14.701611 7.4186606 14.152215 7 13.5 7 z M 10.5 11 A 1.5 1.5 0 0 0 9.0878906 12 L 7 12 L 7 13 L 9.0878906 13 A 1.5 1.5 0 0 0 10.5 14 A 1.5 1.5 0 0 0 11.912109 13 L 17 13 L 17 12 L 11.912109 12 A 1.5 1.5 0 0 0 10.5 11 z M 10.5 12 A 0.5 0.5 0 0 1 11 12.5 A 0.5 0.5 0 0 1 10.5 13 A 0.5 0.5 0 0 1 10 12.5 A 0.5 0.5 0 0 1 10.5 12 z "
       transform="translate(-1,1029.3622)"
       id="rect4139" />
  </g>
</svg>
