<?xml version="1.0" encoding="UTF-8" standalone="no"?>
<!-- Created with Inkscape (http://www.inkscape.org/) -->

<svg
   xmlns:dc="http://purl.org/dc/elements/1.1/"
   xmlns:cc="http://creativecommons.org/ns#"
   xmlns:rdf="http://www.w3.org/1999/02/22-rdf-syntax-ns#"
   xmlns:svg="http://www.w3.org/2000/svg"
   xmlns="http://www.w3.org/2000/svg"
   xmlns:sodipodi="http://sodipodi.sourceforge.net/DTD/sodipodi-0.dtd"
   xmlns:inkscape="http://www.inkscape.org/namespaces/inkscape"
   width="24"
   height="24"
   id="svg3869"
   version="1.1"
   inkscape:version="0.91 r13725"
   sodipodi:docname="code-context.svg">
  <defs
     id="defs3871">
    <inkscape:perspective
       sodipodi:type="inkscape:persp3d"
       inkscape:vp_x="0 : 12 : 1"
       inkscape:vp_y="0 : 1000 : 0"
       inkscape:vp_z="24 : 12 : 1"
       inkscape:persp3d-origin="12 : 8 : 1"
       id="perspective4146" />
    <inkscape:perspective
       sodipodi:type="inkscape:persp3d"
       inkscape:vp_x="0 : 12 : 1"
       inkscape:vp_y="0 : 1000 : 0"
       inkscape:vp_z="24 : 12 : 1"
       inkscape:persp3d-origin="12 : 8 : 1"
       id="perspective4090" />
  </defs>
  <sodipodi:namedview
     id="base"
     pagecolor="#ffffff"
     bordercolor="#666666"
     borderopacity="1.0"
     inkscape:pageopacity="0.0"
     inkscape:pageshadow="2"
     inkscape:zoom="22.627416"
     inkscape:cx="11.061087"
     inkscape:cy="12.032563"
     inkscape:document-units="px"
     inkscape:current-layer="layer1"
     showgrid="true"
     fit-margin-top="0"
     fit-margin-left="0"
     fit-margin-right="0"
     fit-margin-bottom="0"
     inkscape:window-width="1366"
     inkscape:window-height="709"
     inkscape:window-x="-4"
     inkscape:window-y="0"
     inkscape:window-maximized="1"
     inkscape:showpageshadow="false"
     inkscape:object-nodes="true"
     inkscape:snap-bbox="true">
    <inkscape:grid
       type="xygrid"
       id="grid4132" />
    <sodipodi:guide
       position="4,18"
       orientation="18,0"
       id="guide4138" />
    <sodipodi:guide
       position="5,3"
       orientation="0,18"
       id="guide4140" />
    <sodipodi:guide
       position="20,2.0000174"
       orientation="-18,0"
       id="guide4142" />
    <sodipodi:guide
       position="2,21"
       orientation="0,-18"
       id="guide4144" />
    <sodipodi:guide
       position="3,19.000017"
       orientation="16,0"
       id="guide4146" />
    <sodipodi:guide
       position="2,4"
       orientation="0,16"
       id="guide4148" />
    <sodipodi:guide
       position="21,20"
       orientation="-16,0"
       id="guide4150" />
    <sodipodi:guide
       position="2,20"
       orientation="0,-16"
       id="guide4152" />
  </sodipodi:namedview>
  <metadata
     id="metadata3874">
    <rdf:RDF>
      <cc:Work
         rdf:about="">
        <dc:format>image/svg+xml</dc:format>
        <dc:type
           rdf:resource="http://purl.org/dc/dcmitype/StillImage" />
        <dc:title></dc:title>
      </cc:Work>
    </rdf:RDF>
  </metadata>
  <g
     inkscape:label="Capa 1"
     inkscape:groupmode="layer"
     id="layer1"
     transform="translate(-326,-532.3622)">
    <g
       transform="translate(-51.85714,-6.71427)"
       id="layer1-8"
       inkscape:label="Capa 1">
      <path
         id="path4121"
         transform="translate(378.85714,540.07647)"
         d="M 10.044922,3 C 8.2680919,3 7.5234375,3.7064456 7.5234375,5.5097656 l 0,2.4414063 c 0,1.11382 -0.034195,2.4042971 -1.015625,2.4042971 l -0.5078125,0 0,1.289062 0.5078125,0 c 0.98148,0 1.015625,1.290477 1.015625,2.404297 l 0,2.441406 C 7.5234375,18.293554 8.2680919,19 10.044922,19 l 0,-1.183594 c -1.1845501,0 -1.201172,-0.478327 -1.201172,-2.210937 l 0,-2.015625 c 0,-0.83093 -0.204705,-2.067378 -1.203125,-2.580078 0.99842,-0.51271 1.203125,-1.7510916 1.203125,-2.5820316 l 0,-2.0332032 c 0,-1.7326 0.016592,-2.2109374 1.201172,-2.2109374 L 10.044922,3 Z m 1.894531,0 0,1.1835938 c 1.18456,0 1.216797,0.4783374 1.216797,2.2109374 l 0,2.0332032 c 0,0.83094 0.204705,2.0693216 1.203125,2.5820316 -0.99842,0.5127 -1.203125,1.749148 -1.203125,2.580078 l 0,2.015625 c 0,1.73261 -0.03219,2.210937 -1.216797,2.210937 l 0,1.183594 c 1.77684,0 2.537109,-0.706446 2.537109,-2.509766 l 0,-2.441406 c 0,-1.11382 0.06864,-2.404297 1.033204,-2.404297 l 0.490234,0 0,-1.289062 -0.490234,0 c -0.96457,0 -1.033204,-1.2904771 -1.033204,-2.4042971 l 0,-2.4414063 C 14.476562,3.7064456 13.716293,3 11.939453,3 Z"
         style="font-style:normal;font-variant:normal;font-weight:normal;font-stretch:normal;font-size:medium;line-height:125%;font-family:oxygen;-inkscape-font-specification:oxygen;letter-spacing:0px;word-spacing:0px;fill:#4d4d4d;fill-opacity:1;stroke:none;stroke-width:1px;stroke-linecap:butt;stroke-linejoin:miter;stroke-opacity:1"
         inkscape:connector-curvature="0" />
    </g>
  </g>
</svg>
