<svg xmlns="http://www.w3.org/2000/svg" viewBox="0 0 22 22">
  <defs id="defs3051">
    <style type="text/css" id="current-color-scheme">
      .ColorScheme-Text {
        color:#232629;
      }
      </style>
  </defs>
 <path 
    style="fill:currentColor;fill-opacity:1;stroke:none" 
	d="m3 3v1 3h1v-3h3v-1h-3-1m12 0v1h3v3h1v-4h-4zm-10 2v5h5v-5h-5m7 0v5h5v-5h-5m-6 1h3v3h-3v-3m7 0h3v3h-3v-3zm-8 6v5h5v-5h-5m7 0v5h5v-5h-5m-6 1h3v3h-3v-3m7 0h3v3h-3v-3m-10 2v4h1 3v-1h-3v-3h-1m15 0v3h-3v1h4v-1-3h-1"
    class="ColorScheme-Text"
    />  
</svg>
