<svg xmlns="http://www.w3.org/2000/svg" viewBox="0 0 24 24">
  <defs id="defs3051">
    <style type="text/css" id="current-color-scheme">
      .ColorScheme-Text {
        color:#4d4d4d;
      }
      </style>
  </defs>
 <path 
     transform="translate(1,1)"
    style="fill:currentColor;fill-opacity:1;stroke:none" 
    d="M 9 3 C 5.6759952 3 3 5.6759952 3 9 C 3 12.324005 5.6759952 15 9 15 C 10.481205 15 11.830584 14.465318 12.875 13.582031 L 18.292969 19 L 19 18.292969 L 13.582031 12.875 C 14.465318 11.830584 15 10.481205 15 9 C 15 5.6759952 12.324005 3 9 3 z M 9 4 C 11.770005 4 14 6.2299952 14 9 C 14 11.770005 11.770005 14 9 14 C 6.2299952 14 4 11.770005 4 9 C 4 6.2299952 6.2299952 4 9 4 z M 4 17 C 3.4460048 17 3 17.446005 3 18 C 3 18.553995 3.4460048 19 4 19 C 4.5539952 19 5 18.553995 5 18 C 5 17.446005 4.5539952 17 4 17 z M 8 17 C 7.4460048 17 7 17.446005 7 18 C 7 18.553995 7.4460048 19 8 19 C 8.5539952 19 9 18.553995 9 18 C 9 17.446005 8.5539952 17 8 17 z M 12 17 C 11.446005 17 11 17.446005 11 18 C 11 18.553995 11.446005 19 12 19 C 12.553995 19 13 18.553995 13 18 C 13 17.446005 12.553995 17 12 17 z "
    class="ColorScheme-Text"
    />  
</svg>
