<svg xmlns="http://www.w3.org/2000/svg" viewBox="0 0 22 22">
  <defs id="defs3051">
    <style type="text/css" id="current-color-scheme">
      .ColorScheme-Text {
        color:#232629;
      }
      </style>
  </defs>
 <path 
    style="fill:currentColor;fill-opacity:1;stroke:none" 
    d="M 14 3 L 14 5 L 14 6 L 14 8 L 14 9 L 15 9 L 17 9 C 18.108 9 19 8.108 19 7 C 19 6.1891 18.518727 5.4980937 17.828125 5.1835938 C 17.934063 4.9776938 18 4.7483 18 4.5 C 18 3.669 17.330999 3 16.5 3 L 15 3 L 14 3 z M 15 4 L 16.5 4 C 16.777 4 17 4.223 17 4.5 C 17 4.777 16.777 5 16.5 5 L 15 5 L 15 4 z M 8.2167969 5 L 3 19 L 4.6875 19 L 6.3554688 14.570312 L 11.917969 14.570312 L 13.451172 19 L 15.140625 19 L 10.210938 5 L 8.2167969 5 z M 15 6 L 16.5 6 L 17 6 C 17.553999 6 18 6.446 18 7 C 18 7.554 17.553999 8 17 8 L 15 8 L 15 6 z M 9.2324219 6.6113281 L 11.361328 13.285156 L 6.8730469 13.285156 L 9.2324219 6.6113281 z "
    class="ColorScheme-Text"
    />  
</svg>
