<svg xmlns="http://www.w3.org/2000/svg" viewBox="0 0 24 24">
  <a transform="translate(1,1)">
 <path d="m12 4c-2.027598 0-3.87132.756694-5.28125 2-.126239.11132-.25603.22478-.375.34375l-.34375.375c-1.243306 1.40993-2 3.253652-2 5.28125 0 4.41828 3.58172 8 8 8 2.027598 0 3.87132-.756694 5.28125-2l.375-.34375c.11897-.11897.23243-.248761.34375-.375 1.243306-1.40993 2-3.253652 2-5.28125 0-4.41828-3.58172-8-8-8m0 1c3.86599 0 7 3.13401 7 7 0 1.75366-.653215 3.334268-1.71875 4.5625l-9.84375-9.84375c1.228231-1.065535 2.80884-1.71875 4.5625-1.71875m-5.28125 2.4375l9.84375 9.84375c-1.228232 1.065535-2.80884 1.71875-4.5625 1.71875-3.86599 0-7-3.13401-7-7 0-1.75366.653215-3.334269 1.71875-4.5625" style="fill:#da4453"/>
</a>
</svg>
