<svg xmlns="http://www.w3.org/2000/svg" viewBox="0 0 22 22">
  <defs id="defs3051">
    <style type="text/css" id="current-color-scheme">
      .ColorScheme-Text {
        color:#4d4d4d;
      }
      .ColorScheme-Highlight {
        color:#3daee9;
      }
      </style>
  </defs>
 <path 
     style="fill:currentColor;fill-opacity:1;stroke:none" 
     d="M 11 3 C 10.32479 3.004 9.65279 3.092995 9 3.265625 L 9 4.2988281 L 9 4.3105469 A 7 7 0 0 0 7.6835938 4.8554688 L 7.6757812 4.8476562 L 6.9433594 4.1152344 C 5.7764094 4.8032844 4.8032844 5.7764094 4.1152344 6.9433594 L 4.6367188 7.4648438 L 4.8554688 7.6835938 A 7 7 0 0 0 4.3085938 9 L 4.2949219 9 L 3.2597656 9 C 3.0891456 9.65304 3.00187 10.32505 3 11 C 3.004 11.67521 3.093005 12.34721 3.265625 13 L 4.2988281 13 L 4.3105469 13 A 7 7 0 0 0 4.8554688 14.316406 L 4.6367188 14.535156 L 4.1152344 15.056641 C 4.8032844 16.223601 5.7763994 17.196716 6.9433594 17.884766 L 7.4648438 17.363281 L 7.6835938 17.144531 A 7 7 0 0 0 9 17.691406 L 9 18 L 9 18.740234 C 9.3290402 18.826203 9.6633795 18.890207 10 18.933594 L 10 17.925781 L 10 17.921875 L 10 17 L 10 16.910156 A 6 6 0 0 1 7.5273438 15.886719 L 7.4648438 15.949219 L 6.8144531 16.599609 L 6.8105469 16.603516 C 6.2742469 16.201456 5.7991075 15.72484 5.3984375 15.1875 L 5.4003906 15.185547 L 6.0507812 14.535156 L 6.1152344 14.470703 A 6 6 0 0 1 5.0859375 12 L 5 12 L 4.0800781 12 L 4.0761719 12 C 4.0273719 11.66955 4.0012 11.33491 4 11 C 4.0005 10.66455 4.0259187 10.33106 4.0742188 10 L 4.078125 10 L 5 10 L 5.0898438 10 A 6 6 0 0 1 6.1132812 7.5273438 L 6.0507812 7.4648438 L 5.4003906 6.8144531 L 5.3964844 6.8105469 C 5.7985544 6.2742469 6.27516 5.7991075 6.8125 5.3984375 L 6.8144531 5.4003906 L 7.4648438 6.0507812 L 7.5292969 6.1152344 A 6 6 0 0 1 10 5.0859375 L 10 5 L 10 4.0800781 L 10 4.0761719 C 10.33044 4.0273719 10.66509 4.0012 11 4 C 11.33491 4.0012 11.66956 4.0273719 12 4.0761719 L 12 4.0800781 L 12 5 L 12 5.0859375 A 6 6 0 0 1 14.470703 6.1152344 L 14.535156 6.0507812 L 15.185547 5.4003906 L 15.1875 5.3984375 C 15.72484 5.7991075 16.201446 6.2742469 16.603516 6.8105469 L 16.599609 6.8144531 L 15.949219 7.4648438 L 15.886719 7.5273438 A 6 6 0 0 1 16.910156 10 L 17 10 L 17.921875 10 L 17.925781 10 C 17.974081 10.33106 17.9995 10.66455 18 11 C 17.9988 11.33491 17.972628 11.66955 17.923828 12 L 18.929688 12 C 18.97335 11.668534 18.998015 11.335001 19 11 C 18.99813 10.32505 18.910854 9.65304 18.740234 9 L 17.705078 9 L 17.691406 9 A 7 7 0 0 0 17.144531 7.6835938 L 17.363281 7.4648438 L 17.884766 6.9433594 C 17.196716 5.7764094 16.223591 4.8032844 15.056641 4.1152344 L 14.324219 4.8476562 L 14.316406 4.8554688 A 7 7 0 0 0 13 4.3105469 L 13 4.2988281 L 13 3.265625 C 12.34721 3.092995 11.67521 3.004 11 3 z M 11 10 A 1 1 0 0 0 10 11 A 1 1 0 0 0 11 12 A 1 1 0 0 0 12 11 A 1 1 0 0 0 11 10 z M 13 12 L 11 13.5 L 13 15 L 13 14 L 18 14 C 18.554 14 19 14.446 19 15 L 20 15 C 20 13.89199 19.10801 13 18 13 L 13 13 L 13 12 z M 11 16 C 11 17.10801 11.89199 18 13 18 L 18 18 L 18 19 L 20 17.5 L 18 16 L 18 17 L 13 17 C 12.446 17 12 16.554 12 16 L 11 16 z "
     class="ColorScheme-Text"
     />
</svg>
