<svg xmlns="http://www.w3.org/2000/svg" viewBox="0 0 24 24">
  <defs id="defs3051">
    <style type="text/css" id="current-color-scheme">
      .ColorScheme-Text {
        color:#4d4d4d;
      }
      </style>
  </defs>
 <path style="fill:currentColor;fill-opacity:1;stroke:none" 
     d="M 5 7 L 5 7.5 L 5 8 L 4 8 L 4 8.9082031 L 4 10 L 4 15 L 4 15.091797 L 4 16 L 4.5 16 L 5 16 L 5 17 L 5.9082031 17 L 7 17 L 17 17 L 17.091797 17 L 18.091797 17 L 19 17 L 19 16 L 19.5 16 L 20 16 L 20 15.091797 L 20 14 L 20 10 L 20 8.9082031 L 20 8 L 19 8 L 19 7.5 L 19 7 L 18.091797 7 L 17.091797 7 L 5.9082031 7 L 5 7 z M 5.9082031 8 L 17.091797 8 L 18.091797 8 C 18.242137 8.4247 18.5753 8.7578631 19 8.9082031 L 19 10 L 19 14 L 19 15.091797 C 18.5753 15.242137 18.242137 15.5753 18.091797 16 L 17.091797 16 L 17 16 L 7 16 L 5.9082031 16 C 5.7578631 15.5753 5.4247 15.242137 5 15.091797 L 5 14 L 5 10 L 5 8.9082031 C 5.4247013 8.7578551 5.7578551 8.4247013 5.9082031 8 z M 12 9 C 10.338 9 9 10.338 9 12 C 9 13.662 10.338 15 12 15 C 13.662 15 15 13.662 15 12 C 15 10.338 13.662 9 12 9 z M 12 10 C 13.108 10 14 10.892 14 12 C 14 13.108 13.108 14 12 14 C 10.892 14 10 13.108 10 12 C 10 10.892 10.892 10 12 10 z "
     class="ColorScheme-Text"
     />
</svg>
