<svg xmlns="http://www.w3.org/2000/svg" viewBox="0 0 22 22">
  <defs id="defs3051">
    <style type="text/css" id="current-color-scheme">
      .ColorScheme-Text {
        color:#232629;
      }
      </style>
  </defs>
 <path 
     style="fill:currentColor;fill-opacity:1;stroke:none" 
     d="M 18.292969 3 L 3 18.292969 L 3.7070312 19 L 19 3.7070312 L 18.292969 3 z M 11 6 A 10 9.9999781 0 0 0 2.2871094 11.119141 C 2.4663699 11.420241 2.7209984 11.668644 3.0273438 11.839844 A 9 8.99998 0 0 1 11 7 A 4 4 0 0 0 7 11 A 4 4 0 0 0 7.3574219 12.642578 L 8.1308594 11.869141 A 3 3 0 0 1 8 11 A 3 3 0 0 1 11 8 A 3 3 0 0 1 11.869141 8.1308594 L 12.640625 7.359375 A 4 4 0 0 0 11.34375 7.0175781 A 9 8.99998 0 0 1 12.796875 7.203125 L 13.640625 6.359375 A 10 9.9999781 0 0 0 11 6 z M 16.404297 7.5957031 L 15.675781 8.3242188 A 9 8.99998 0 0 1 18.974609 11.837891 C 19.282742 11.665091 19.539718 11.415428 19.71875 11.111328 A 10 9.9999781 0 0 0 16.404297 7.5957031 z M 11 9 A 2 2 0 0 0 9 11 L 11 9 z M 14.642578 9.3574219 L 13.869141 10.130859 A 3 3 0 0 1 14 11 A 3 3 0 0 1 11 14 A 3 3 0 0 1 10.130859 13.869141 L 9.3574219 14.642578 A 4 4 0 0 0 11 15 A 4 4 0 0 0 15 11 A 4 4 0 0 0 14.642578 9.3574219 z M 13 11 L 11 13 A 2 2 0 0 0 13 11 z M 1 13 C 0.33333333 19 0.66666667 16 1 13 z "
     class="ColorScheme-Text"
     />
</svg>
