<?xml version="1.0" encoding="UTF-8" standalone="no"?>
<svg
   xmlns:dc="http://purl.org/dc/elements/1.1/"
   xmlns:cc="http://creativecommons.org/ns#"
   xmlns:rdf="http://www.w3.org/1999/02/22-rdf-syntax-ns#"
   xmlns:svg="http://www.w3.org/2000/svg"
   xmlns="http://www.w3.org/2000/svg"
   xmlns:sodipodi="http://sodipodi.sourceforge.net/DTD/sodipodi-0.dtd"
   xmlns:inkscape="http://www.inkscape.org/namespaces/inkscape"
   viewBox="0 0 16 16"
   id="svg2"
   version="1.1"
   inkscape:version="0.91 r13725"
   sodipodi:docname="icon-dark.svg"
   inkscape:export-filename="/home/mbr/Загрузки/icon-dark.png"
   inkscape:export-xdpi="720"
   inkscape:export-ydpi="720">
  <metadata
     id="metadata10">
    <rdf:RDF>
      <cc:Work
         rdf:about="">
        <dc:format>image/svg+xml</dc:format>
        <dc:type
           rdf:resource="http://purl.org/dc/dcmitype/StillImage" />
        <dc:title />
      </cc:Work>
    </rdf:RDF>
  </metadata>
  <sodipodi:namedview
     pagecolor="#000000"
     bordercolor="#666666"
     borderopacity="1"
     objecttolerance="10"
     gridtolerance="10"
     guidetolerance="10"
     inkscape:pageopacity="0"
     inkscape:pageshadow="2"
     inkscape:window-width="1600"
     inkscape:window-height="868"
     id="namedview8"
     showgrid="false"
     inkscape:zoom="16"
     inkscape:cx="-2.664346"
     inkscape:cy="14.092856"
     inkscape:window-x="0"
     inkscape:window-y="0"
     inkscape:window-maximized="1"
     inkscape:current-layer="layer1" />
  <defs
     id="defs3051">
    <style
       type="text/css"
       id="current-color-scheme">
      .ColorScheme-Text {
        color:#f2f2f2
      }
      </style>
  </defs>
  <g
     inkscape:groupmode="layer"
     id="layer1"
     inkscape:label="Layer 1">
    <path
       sodipodi:nodetypes="cccccc"
       inkscape:connector-curvature="0"
       id="path3381"
       d="m 13.397328,2.3992772 0,11.2014458 -7.6986353,0 -3.2994103,-3.360427 0,-7.8410188 z"
       style="color:#000000;display:inline;overflow:visible;visibility:visible;opacity:1;fill:none;fill-opacity:1;fill-rule:nonzero;stroke:#f2f2f2;stroke-width:0.83244693;stroke-miterlimit:4;stroke-dasharray:none;stroke-opacity:1;marker:none;enable-background:accumulate;stroke-linejoin:miter" />
    <path
       sodipodi:nodetypes="cccc"
       d="m 2.3992706,10.240296 3.2994221,3.360427 0,-3.360427 z"
       id="path3387"
       style="display:inline;opacity:1;fill:#f2f2f2;fill-rule:evenodd;stroke:none;stroke-width:0.55496466;stroke-linecap:butt;stroke-linejoin:round;stroke-miterlimit:4;stroke-dasharray:none;stroke-opacity:1;enable-background:new;fill-opacity:1"
       inkscape:connector-curvature="0" />
    <path
       inkscape:connector-curvature="0"
       style="color:#4d4d4d;clip-rule:nonzero;display:inline;overflow:visible;visibility:visible;opacity:1;isolation:auto;mix-blend-mode:normal;color-interpolation:sRGB;color-interpolation-filters:linearRGB;solid-color:#000000;solid-opacity:1;fill:none;fill-opacity:1;fill-rule:nonzero;stroke:#3daee9;stroke-width:0.64999998;stroke-linecap:round;stroke-linejoin:round;stroke-miterlimit:2.5999999;stroke-dasharray:none;stroke-dashoffset:0;stroke-opacity:1;color-rendering:auto;image-rendering:auto;shape-rendering:auto;text-rendering:auto;enable-background:accumulate"
       id="path4225"
       d="M 7.8545215,5.894937 A 1.7106408,1.7422758 0 0 0 6.1438869,7.6372184 1.7106408,1.7422758 0 0 0 6.1635129,7.8865992 1.2218863,1.2444827 0 0 0 6.1438869,7.8860332 1.2218863,1.2444827 0 0 0 4.922,9.130529 1.2218863,1.2444827 0 0 0 6.1438869,10.375 l 3.1769012,0 A 1.4662636,1.4933793 0 0 0 10.787054,8.88163 1.4662636,1.4933793 0 0 0 9.5484621,7.4076942 1.7106408,1.7422758 0 0 0 7.8545215,5.8948647 Z m 0,0.2488991 a 1.4662636,1.4933793 0 0 1 0.1465333,0.00722 1.4662636,1.4933793 0 0 1 0.6811065,0.2537518 1.4662636,1.4933793 0 0 1 5.557e-4,0 1.4662636,1.4933793 0 0 1 0.3202711,0.3038327 1.4662636,1.4933793 0 0 1 0,5.539e-4 1.4662636,1.4933793 0 0 1 0.2968735,0.6800953 1.4662636,1.4933793 0 0 1 0.020926,0.2479117 1.2218863,1.2444827 0 0 1 0.2434221,0.024806 1.2218863,1.2444827 0 0 1 0.1178745,0.030586 1.2218863,1.2444827 0 0 1 5.557e-4,0 1.2218863,1.2444827 0 0 1 0.1140912,0.042747 1.2218863,1.2444827 0 0 1 5.557e-4,0 1.2218863,1.2444827 0 0 1 0.1093622,0.053946 1.2218863,1.2444827 0 0 1 0.0011,5.66e-4 1.2218863,1.2444827 0 0 1 0.103095,0.064663 1.2218863,1.2444827 0 0 1 0.0011,5.659e-4 1.2218863,1.2444827 0 0 1 0.09636,0.074898 1.2218863,1.2444827 0 0 1 5.44e-4,5.539e-4 1.2218863,1.2444827 0 0 1 0.08879,0.08405 1.2218863,1.2444827 0 0 1 5.44e-4,5.66e-4 1.2218863,1.2444827 0 0 1 0.15131,0.1944471 1.2218863,1.2444827 0 0 1 5.44e-4,5.66e-4 1.2218863,1.2444827 0 0 1 0.06018,0.1074106 1.2218863,1.2444827 0 0 1 5.55e-4,5.54e-4 1.2218863,1.2444827 0 0 1 0.04966,0.112829 1.2218863,1.2444827 0 0 1 5.56e-4,5.66e-4 1.2218863,1.2444827 0 0 1 0.03819,0.117647 1.2218863,1.2444827 0 0 1 0,5.53e-4 1.2218863,1.2444827 0 0 1 0.02672,0.121054 1.2218863,1.2444827 0 0 1 0,5.54e-4 1.2218863,1.2444827 0 0 1 0.01478,0.122993 1.2218863,1.2444827 0 0 1 0.0024,0.0879 1.2218863,1.2444827 0 0 1 -1.2218857,1.244483 l -3.1769012,0 a 0.97750904,0.99558618 0 0 1 -0.9775189,-0.995584 0.97750904,0.99558618 0 0 1 0.00473,-0.09922 0.97750904,0.99558618 0 0 1 0.9727307,-0.8964102 0.97750904,0.99558618 0 0 1 0.073066,0.00361 0.97750904,0.99558618 0 0 1 0,5.539e-4 0.97750904,0.99558618 0 0 1 0.2825677,0.065145 1.4662636,1.4933793 0 0 1 -0.083588,-0.2853609 1.4662636,1.4933793 0 0 1 -0.018089,-0.1263883 1.4662636,1.4933793 0 0 1 -0.00355,-0.028659 1.4662636,1.4933793 0 0 1 -0.00591,-0.1264003 1.4662636,1.4933793 0 0 1 0.00709,-0.1492431 1.4662636,1.4933793 0 0 1 1.459102,-1.3441392 z"
       inkscape:export-xdpi="720"
       inkscape:export-ydpi="720" />
    <rect
       transform="scale(1,-1)"
       y="-4.104733"
       x="2.3992553"
       height="1.5079069"
       width="10.998068"
       id="rect3393"
       style="color:#4d4d4d;clip-rule:nonzero;display:inline;overflow:visible;visibility:visible;opacity:1;isolation:auto;mix-blend-mode:normal;color-interpolation:sRGB;color-interpolation-filters:linearRGB;solid-color:#000000;solid-opacity:1;fill:#f2f2f2;fill-opacity:1;fill-rule:nonzero;stroke:none;stroke-width:1;stroke-linecap:square;stroke-linejoin:miter;stroke-miterlimit:4;stroke-dasharray:none;stroke-dashoffset:0;stroke-opacity:1;color-rendering:auto;image-rendering:auto;shape-rendering:auto;text-rendering:auto;enable-background:accumulate" />
  </g>
</svg>
