<?xml version="1.0" encoding="UTF-8" standalone="no"?>
<!DOCTYPE svg PUBLIC "-//W3C//DTD SVG 1.1//EN"
 "http://www.w3.org/Graphics/SVG/1.1/DTD/svg11.dtd">
<!-- Generated by graphviz version 2.40.1 (20161225.0304)
 -->
<!-- Title: main Pages: 1 -->
<svg width="979pt" height="401pt"
 viewBox="0.00 0.00 979.00 401.00" xmlns="http://www.w3.org/2000/svg" xmlns:xlink="http://www.w3.org/1999/xlink">
<g id="graph0" class="graph" transform="scale(1 1) rotate(0) translate(4 397)">
<title>main</title>
<polygon fill="#ffffff" stroke="transparent" points="-4,4 -4,-397 975,-397 975,4 -4,4"/>
<g id="clust1" class="cluster">
<title>cluster1</title>
<path fill="none" stroke="#b3b3b3" d="M608,-80C608,-80 951,-80 951,-80 957,-80 963,-86 963,-92 963,-92 963,-373 963,-373 963,-379 957,-385 951,-385 951,-385 608,-385 608,-385 602,-385 596,-379 596,-373 596,-373 596,-92 596,-92 596,-86 602,-80 608,-80"/>
<text text-anchor="middle" x="779.5" y="-369.8" font-family="sans-serif" font-size="14.00" fill="#000000">Your computer</text>
</g>
<g id="clust2" class="cluster">
<title>cluster2</title>
<path fill="none" stroke="#b3b3b3" d="M22,-8C22,-8 576,-8 576,-8 582,-8 588,-14 588,-20 588,-20 588,-143 588,-143 588,-149 582,-155 576,-155 576,-155 22,-155 22,-155 16,-155 10,-149 10,-143 10,-143 10,-20 10,-20 10,-14 16,-8 22,-8"/>
<text text-anchor="middle" x="299" y="-139.8" font-family="sans-serif" font-size="14.00" fill="#000000">Your Nextcloud server</text>
</g>
<g id="clust3" class="cluster">
<title>cluster3</title>
<path fill="none" stroke="#b3b3b3" d="M20,-163C20,-163 276,-163 276,-163 282,-163 288,-169 288,-175 288,-175 288,-298 288,-298 288,-304 282,-310 276,-310 276,-310 20,-310 20,-310 14,-310 8,-304 8,-298 8,-298 8,-175 8,-175 8,-169 14,-163 20,-163"/>
<text text-anchor="middle" x="148" y="-294.8" font-family="sans-serif" font-size="14.00" fill="#000000">Your mobile phone</text>
</g>
<!-- QOwnNotes -->
<g id="node1" class="node">
<title>QOwnNotes</title>
<ellipse fill="#e5e5e5" stroke="#4169e1" cx="668" cy="-189" rx="63.8893" ry="18"/>
<text text-anchor="middle" x="668" y="-185.3" font-family="sans-serif" font-size="14.00" fill="#000000">QOwnNotes</text>
</g>
<!-- Markdown note files -->
<g id="node2" class="node">
<title>Markdown note files</title>
<ellipse fill="none" stroke="#4169e1" cx="703" cy="-106" rx="98.5829" ry="18"/>
<text text-anchor="middle" x="703" y="-102.3" font-family="sans-serif" font-size="14.00" fill="#000000">Markdown note files</text>
</g>
<!-- QOwnNotes&#45;&#45;Markdown note files -->
<g id="edge1" class="edge">
<title>QOwnNotes&#45;&#45;Markdown note files</title>
<path fill="none" stroke="#000000" d="M675.5945,-170.9902C681.4652,-157.0684 689.5534,-137.8876 695.4203,-123.9746"/>
</g>
<!-- Nextcloud server -->
<g id="node6" class="node">
<title>Nextcloud server</title>
<ellipse fill="none" stroke="#4169e1" cx="467" cy="-34" rx="84.485" ry="18"/>
<text text-anchor="middle" x="467" y="-30.3" font-family="sans-serif" font-size="14.00" fill="#000000">Nextcloud server</text>
</g>
<!-- QOwnNotes&#45;&#45;Nextcloud server -->
<g id="edge8" class="edge">
<title>QOwnNotes&#45;&#45;Nextcloud server</title>
<path fill="none" stroke="#000000" d="M704.1276,-174.0829C715.4458,-169.9197 728.0934,-165.78 740,-163 755.4618,-159.39 800.42,-166.839 811,-155 833.2115,-130.1452 832.9527,-105.0837 811,-80 793.9119,-60.4748 644.0805,-46.3992 547.8751,-39.2792"/>
</g>
<!-- QOwnNotesApi Nextcloud app -->
<g id="node7" class="node">
<title>QOwnNotesApi Nextcloud app</title>
<ellipse fill="none" stroke="#4169e1" cx="438" cy="-106" rx="141.8751" ry="18"/>
<text text-anchor="middle" x="438" y="-102.3" font-family="sans-serif" font-size="14.00" fill="#000000">QOwnNotesApi Nextcloud app</text>
</g>
<!-- QOwnNotes&#45;&#45;QOwnNotesApi Nextcloud app -->
<g id="edge7" class="edge">
<title>QOwnNotes&#45;&#45;QOwnNotesApi Nextcloud app</title>
<path fill="none" stroke="#000000" d="M628.7229,-174.8261C588.9492,-160.473 527.4214,-138.2695 485.0631,-122.9836"/>
</g>
<!-- Nextcloud sync client -->
<g id="node3" class="node">
<title>Nextcloud sync client</title>
<ellipse fill="none" stroke="#4169e1" cx="852" cy="-189" rx="102.8821" ry="18"/>
<text text-anchor="middle" x="852" y="-185.3" font-family="sans-serif" font-size="14.00" fill="#000000">Nextcloud sync client</text>
</g>
<!-- Nextcloud sync client&#45;&#45;Markdown note files -->
<g id="edge4" class="edge">
<title>Nextcloud sync client&#45;&#45;Markdown note files</title>
<path fill="none" stroke="#000000" d="M821.1271,-171.8023C795.555,-157.5575 759.3945,-137.4144 733.8333,-123.1756"/>
</g>
<!-- Nextcloud sync client&#45;&#45;Nextcloud server -->
<g id="edge5" class="edge">
<title>Nextcloud sync client&#45;&#45;Nextcloud server</title>
<path fill="none" stroke="#000000" d="M854.7184,-170.9694C857.2695,-146.5878 857.6063,-103.4632 833,-80 812.7517,-60.6924 649.6035,-46.3097 548.0822,-39.125"/>
</g>
<!-- QOwnNotes browser extension -->
<g id="node4" class="node">
<title>QOwnNotes browser extension</title>
<ellipse fill="none" stroke="#4169e1" cx="752" cy="-261" rx="147.5738" ry="18"/>
<text text-anchor="middle" x="752" y="-257.3" font-family="sans-serif" font-size="14.00" fill="#000000">QOwnNotes browser extension</text>
</g>
<!-- QOwnNotes browser extension&#45;&#45;QOwnNotes -->
<g id="edge2" class="edge">
<title>QOwnNotes browser extension&#45;&#45;QOwnNotes</title>
<path fill="none" stroke="#000000" d="M730.8033,-242.8314C717.6807,-231.5834 700.9333,-217.2285 688.0334,-206.1715"/>
</g>
<!-- Web browser -->
<g id="node5" class="node">
<title>Web browser</title>
<ellipse fill="none" stroke="#4169e1" cx="752" cy="-336" rx="67.6881" ry="18"/>
<text text-anchor="middle" x="752" y="-332.3" font-family="sans-serif" font-size="14.00" fill="#000000">Web browser</text>
</g>
<!-- Web browser&#45;&#45;QOwnNotes browser extension -->
<g id="edge3" class="edge">
<title>Web browser&#45;&#45;QOwnNotes browser extension</title>
<path fill="none" stroke="#000000" d="M752,-317.8446C752,-306.1394 752,-290.9716 752,-279.2482"/>
</g>
<!-- QOwnNotesApi Nextcloud app&#45;&#45;Nextcloud server -->
<g id="edge6" class="edge">
<title>QOwnNotesApi Nextcloud app&#45;&#45;Nextcloud server</title>
<path fill="none" stroke="#000000" d="M445.3179,-87.8314C449.6805,-77 455.2036,-63.2876 459.5835,-52.4133"/>
</g>
<!-- Nextcloud Notes server app -->
<g id="node8" class="node">
<title>Nextcloud Notes server app</title>
<ellipse fill="none" stroke="#4169e1" cx="148" cy="-106" rx="129.9769" ry="18"/>
<text text-anchor="middle" x="148" y="-102.3" font-family="sans-serif" font-size="14.00" fill="#000000">Nextcloud Notes server app</text>
</g>
<!-- Nextcloud Notes server app&#45;&#45;Nextcloud server -->
<g id="edge9" class="edge">
<title>Nextcloud Notes server app&#45;&#45;Nextcloud server</title>
<path fill="none" stroke="#000000" d="M216.0422,-90.6425C273.4071,-77.6949 354.6108,-59.3669 408.9529,-47.1015"/>
</g>
<!-- Nextcloud Notes mobile app -->
<g id="node9" class="node">
<title>Nextcloud Notes mobile app</title>
<ellipse fill="none" stroke="#4169e1" cx="148" cy="-189" rx="131.8766" ry="18"/>
<text text-anchor="middle" x="148" y="-185.3" font-family="sans-serif" font-size="14.00" fill="#000000">Nextcloud Notes mobile app</text>
</g>
<!-- Nextcloud Notes mobile app&#45;&#45;Nextcloud Notes server app -->
<g id="edge10" class="edge">
<title>Nextcloud Notes mobile app&#45;&#45;Nextcloud Notes server app</title>
<path fill="none" stroke="#000000" d="M148,-170.9902C148,-157.1637 148,-138.1501 148,-124.2612"/>
</g>
<!-- Mobile phone -->
<g id="node10" class="node">
<title>Mobile phone</title>
<ellipse fill="none" stroke="#4169e1" cx="148" cy="-261" rx="70.3881" ry="18"/>
<text text-anchor="middle" x="148" y="-257.3" font-family="sans-serif" font-size="14.00" fill="#000000">Mobile phone</text>
</g>
<!-- Mobile phone&#45;&#45;Nextcloud Notes mobile app -->
<g id="edge11" class="edge">
<title>Mobile phone&#45;&#45;Nextcloud Notes mobile app</title>
<path fill="none" stroke="#000000" d="M148,-242.8314C148,-232 148,-218.2876 148,-207.4133"/>
</g>
</g>
</svg>
