<?xml version="1.0" encoding="UTF-8" standalone="no"?>
<!-- Generator: Adobe Illustrator 9.0, SVG Export Plug-In  -->
<svg id="svg2" xmlns:rdf="http://www.w3.org/1999/02/22-rdf-syntax-ns#" xmlns="http://www.w3.org/2000/svg" sodipodi:docname="document-open.svg" xml:space="preserve" height="48px" sodipodi:version="0.32" width="48px" xmlns:cc="http://web.resource.org/cc/" xmlns:dc="http://purl.org/dc/elements/1.1/" viewBox="0 0 48 48" sodipodi:docbase="/home/luca/Desktop/black-and-white/scalable/actions" xmlns:sodipodi="http://inkscape.sourceforge.net/DTD/sodipodi-0.dtd"><metadata id="metadata19"><rdf:RDF><cc:Work rdf:about=""><dc:format>image/svg+xml</dc:format><dc:type rdf:resource="http://purl.org/dc/dcmitype/StillImage"/></cc:Work></rdf:RDF></metadata><sodipodi:namedview id="base" bordercolor="#666666" pagecolor="#ffffff" borderopacity="1.0" showgrid="true"/>
	<rect id="rect3315" style="fill:none" height="48.19" width="48.127" y="-.063325" x="-.063325"/><path id="path5506" sodipodi:nodetypes="ccccccscccccccc" style="stroke:#fff;stroke-width:8;fill:#fff" d="m6 9c-1 0-2 1-2 2v25c0 2 1 3 3 3h28c2 0 3-2 3-2l6-15c0.584-1.46 0-5-3-5h-5v-1c0-2-1-3-3-3h-13v-2c0-1-1-2-2-2h-12z"/><path id="path9" sodipodi:nodetypes="ccccccscccccccc" d="m6 9c-1 0-2 1-2 2v25c0 2 1 3 3 3h28c2 0 3-2 3-2l6-15c0.584-1.46 0-5-3-5h-5v-1c0-2-1-3-3-3h-13v-2c0-1-1-2-2-2h-12z"/><path id="path11" sodipodi:nodetypes="cccscccccc" style="fill:#fff" d="m9 35l24 0.1c0.6 0 1.2-0.4 1.5-0.9 0.7-1 4.8-10.6 4.8-12.5 0-0.4 0-0.7-1.3-0.7h-23c-0.4 0-0.9 0.3-1 0.9-0.1 1.5-2.9 11.239-4 12.539-0.3 0.4-1 0.561-1 0.561z"/>
</svg>
