<?xml version="1.0" encoding="UTF-8" standalone="no"?>
<!-- Generator: Adobe Illustrator 9.0, SVG Export Plug-In  -->
<svg id="svg2" xmlns:rdf="http://www.w3.org/1999/02/22-rdf-syntax-ns#" xmlns="http://www.w3.org/2000/svg" xml:space="preserve" height="48" width="48" version="1.0" xmlns:cc="http://creativecommons.org/ns#" xmlns:dc="http://purl.org/dc/elements/1.1/" viewBox="0 0 48 48"><metadata id="metadata32"><rdf:RDF><cc:Work rdf:about=""><dc:format>image/svg+xml</dc:format><dc:type rdf:resource="http://purl.org/dc/dcmitype/StillImage"/><dc:title>Text Editor</dc:title><dc:date>May 2009</dc:date><dc:creator><cc:Agent><dc:title>Jakub Steiner</dc:title></cc:Agent></dc:creator><dc:coverage/><dc:description>A paper with a pencil on it</dc:description><dc:subject><rdf:Bag><rdf:li>text</rdf:li><rdf:li>editor</rdf:li></rdf:Bag></dc:subject></cc:Work></rdf:RDF></metadata>
	<rect id="rect2400" style="fill:none" height="48" width="48" y="0" x="0"/><rect id="rect3174" style="stroke-linejoin:round;stroke:#fff;stroke-width:8;fill:#fff" ry="3.4532" height="40" width="32" y="4" x="7"/><rect id="rect3172" ry="3.4532" height="40" width="32" y="4" x="7"/><path id="path13" style="fill:#fff" d="m36 7h-26v34h26v-34z"/>
	<g id="g3176" transform="matrix(.99465 0 0 .97382 .14108 .90381)"><path id="path7" style="stroke-linejoin:round;stroke:#fff;stroke-width:12.765;fill:none" d="m38.7 30.4l-13.7-13.7-7.7-3 2.7 8.7 13.3 13.4 5.4-5.4z"/><g id="Layer_x0020_4" style="stroke:#000">
		<path id="path16" style="stroke-linejoin:round;stroke-width:4.9715;fill:none" d="m38.7 30.4l-13.7-13.7-7.7-3 2.7 8.7 13.3 13.4 5.4-5.4z"/>
		<path id="path18" d="m38.7 30.4l-13.7-13.7-7.7-3 2.7 8.7 13.3 13.4 5.4-5.4z"/>
		<path id="path20" d="m20.6 14.7l-2.5 2.5-1.1-3.8 3.6 1.3z"/>
		<path id="path22" style="stroke-width:1.2429;fill:none" d="m19.6 22.2l3-0.3 2.4-2.4 0.4-2.8"/>
		<path id="path24" style="fill:#fff" d="m20.4 14.9l-2.1 2.1 1.6 5.2 2.7-0.3 2.4-2.4 0.3-2.4-5-2.2h0.1z"/>
	</g></g>
	<g id="crop" style="stroke:#000">
		<path id="path27" style="fill:none" d="m48 48h-48v-48h48v48z"/>
	</g>
</svg>
