<?xml version="1.0" encoding="UTF-8" standalone="no"?>
<!-- Generator: Adobe Illustrator 9.0, SVG Export Plug-In  -->
<svg id="svg2" xmlns:rdf="http://www.w3.org/1999/02/22-rdf-syntax-ns#" xmlns="http://www.w3.org/2000/svg" xml:space="preserve" height="48" width="48" version="1.0" xmlns:cc="http://web.resource.org/cc/" xmlns:dc="http://purl.org/dc/elements/1.1/" viewBox="0 0 48 48"><metadata id="metadata17"><rdf:RDF><cc:Work rdf:about=""><dc:format>image/svg+xml</dc:format><dc:type rdf:resource="http://purl.org/dc/dcmitype/StillImage"/><dc:title>Document Properties</dc:title><dc:date>November 2007</dc:date><dc:creator><cc:Agent><dc:title>Jakub Stainer</dc:title></cc:Agent></dc:creator><dc:source>http://www.gnome.org/</dc:source><dc:subject><rdf:Bag><rdf:li>document</rdf:li><rdf:li>properties</rdf:li></rdf:Bag></dc:subject><dc:contributor><cc:Agent><dc:title>Canvas resize and pixel perfect by Luca Ferretti</dc:title></cc:Agent></dc:contributor><cc:license rdf:resource="http://creativecommons.org/licenses/LGPL/2.1/"/></cc:Work><cc:License rdf:about="http://creativecommons.org/licenses/LGPL/2.1/"><cc:permits rdf:resource="http://web.resource.org/cc/Reproduction"/><cc:permits rdf:resource="http://web.resource.org/cc/Distribution"/><cc:requires rdf:resource="http://web.resource.org/cc/Notice"/><cc:permits rdf:resource="http://web.resource.org/cc/DerivativeWorks"/><cc:requires rdf:resource="http://web.resource.org/cc/ShareAlike"/><cc:requires rdf:resource="http://web.resource.org/cc/SourceCode"/></cc:License></rdf:RDF></metadata>
	<rect id="rect2169" style="opacity:.6;fill:none" height="48" width="48" y="0" x="0"/><path id="path3149" style="stroke-linejoin:round;stroke:#fff;stroke-linecap:round;stroke-width:8;fill:#fff" d="m40 27c1.3-1.2 1.4-2.5 2-4l-2-6-6 6-7-2-2-7 6-6-6-2c-1.5 0.6-2.8 1.8-4 3-3.8 3.8-4.9 9.3-3 14l-11 11c-1.9 1.9-1.9 5.1 0 7s5.1 1.9 7 0l11-11c4.7 2 11.2 0.8 15-3z"/><path id="path9" d="m40 27c1.3-1.2 1.4-2.5 2-4l-2-6-6 6-7-2-2-7 6-6-6-2c-1.5 0.6-2.8 1.8-4 3-3.8 3.8-4.9 9.3-3 14l-11 11c-1.9 1.9-1.9 5.1 0 7s5.1 1.9 7 0l11-11c4.7 2 11.2 0.8 15-3z"/>
<path id="path2176" style="fill:#fff" d="m12 38a2 2 0 1 1 -4 0 2 2 0 1 1 4 0z"/></svg>
