<?xml version="1.0" encoding="UTF-8" standalone="no"?>
<!-- Created with Inkscape (http://www.inkscape.org/) -->
<svg id="svg7384" xmlns:rdf="http://www.w3.org/1999/02/22-rdf-syntax-ns#" xmlns="http://www.w3.org/2000/svg" height="16" width="16" version="1.1" xmlns:cc="http://creativecommons.org/ns#" xmlns:dc="http://purl.org/dc/elements/1.1/">
 <metadata id="metadata90">
  <rdf:RDF>
   <cc:Work rdf:about="">
    <dc:format>image/svg+xml</dc:format>
    <dc:type rdf:resource="http://purl.org/dc/dcmitype/StillImage"/>
    <dc:title>Gnome Symbolic Icon Theme</dc:title>
   </cc:Work>
  </rdf:RDF>
 </metadata>
 <title id="title9167">Gnome Symbolic Icon Theme</title>
 <g id="layer9" transform="translate(-261 -257)">
  <path id="path4561" style="block-progression:tb;text-indent:0;color:#000000;text-transform:none;fill:#bebebe" d="m269 257c-2.7496 0-5 2.2504-5 5 0 1.5862 0.84459 2.9034 2 3.8125v2.1875 1h1 4 1v-1-2.1875c1.1554-0.90914 2-2.2263 2-3.8125 0-2.7496-2.2504-5-5-5zm0 2c1.6687 0 3 1.3313 3 3 0 1.1158-0.59507 2.0379-1.5 2.5625l-0.5 0.3125v0.5625 1.5625h-2v-1.5625-0.5625l-0.5-0.3125c-0.9-0.52-1.5-1.44-1.5-2.56 0-1.6687 1.3313-3 3-3z"/>
  <path id="path4488-4" style="block-progression:tb;text-indent:0;color:#000000;text-transform:none;fill:#bebebe" d="m267 272v1h4v-1h-4z"/>
  <path id="path4488-4-7" style="block-progression:tb;text-indent:0;color:#000000;text-transform:none;fill:#bebebe" d="m266 270v1h6v-1h-6z"/>
  <path id="path4488-4-4" style="opacity:.35;block-progression:tb;text-indent:0;color:#000000;text-transform:none;fill:#bebebe" d="m268 262v1h2v-1h-2z"/>
 </g>
</svg>
